<svg id="visual" viewBox="0 0 1200 800" width="1200" height="800" xmlns="http://www.w3.org/2000/svg" xmlns:xlink="http://www.w3.org/1999/xlink" version="1.1"><rect x="0" y="0" width="1200" height="800" fill="#002233"></rect><path d="M0 384L22.2 403.2C44.3 422.3 88.7 460.7 133.2 490C177.7 519.3 222.3 539.7 266.8 529.8C311.3 520 355.7 480 400 466.2C444.3 452.3 488.7 464.7 533.2 481.8C577.7 499 622.3 521 666.8 525.3C711.3 529.7 755.7 516.3 800 500.8C844.3 485.3 888.7 467.7 933.2 473.5C977.7 479.3 1022.3 508.7 1066.8 522.5C1111.3 536.3 1155.7 534.7 1177.8 533.8L1200 533L1200 801L1177.8 801C1155.7 801 1111.3 801 1066.8 801C1022.3 801 977.7 801 933.2 801C888.7 801 844.3 801 800 801C755.7 801 711.3 801 666.8 801C622.3 801 577.7 801 533.2 801C488.7 801 444.3 801 400 801C355.7 801 311.3 801 266.8 801C222.3 801 177.7 801 133.2 801C88.7 801 44.3 801 22.2 801L0 801Z" fill="#0066FF" stroke-linecap="round" stroke-linejoin="miter"></path></svg>