<svg id="visual" viewBox="0 0 900 600" width="900" height="600" xmlns="http://www.w3.org/2000/svg" xmlns:xlink="http://www.w3.org/1999/xlink" version="1.1"><path d="M0 169L13.7 163C27.3 157 54.7 145 82 136C109.3 127 136.7 121 163.8 111C191 101 218 87 245.2 81C272.3 75 299.7 77 327 88C354.3 99 381.7 119 409 116C436.3 113 463.7 87 491 91C518.3 95 545.7 129 573 140C600.3 151 627.7 139 654.8 128C682 117 709 107 736.2 108C763.3 109 790.7 121 818 115C845.3 109 872.7 85 886.3 73L900 61L900 0L886.3 0C872.7 0 845.3 0 818 0C790.7 0 763.3 0 736.2 0C709 0 682 0 654.8 0C627.7 0 600.3 0 573 0C545.7 0 518.3 0 491 0C463.7 0 436.3 0 409 0C381.7 0 354.3 0 327 0C299.7 0 272.3 0 245.2 0C218 0 191 0 163.8 0C136.7 0 109.3 0 82 0C54.7 0 27.3 0 13.7 0L0 0Z" fill="#6198ff"></path><path d="M0 211L13.7 204C27.3 197 54.7 183 82 182C109.3 181 136.7 193 163.8 190C191 187 218 169 245.2 163C272.3 157 299.7 163 327 171C354.3 179 381.7 189 409 187C436.3 185 463.7 171 491 172C518.3 173 545.7 189 573 191C600.3 193 627.7 181 654.8 172C682 163 709 157 736.2 167C763.3 177 790.7 203 818 204C845.3 205 872.7 181 886.3 169L900 157L900 59L886.3 71C872.7 83 845.3 107 818 113C790.7 119 763.3 107 736.2 106C709 105 682 115 654.8 126C627.7 137 600.3 149 573 138C545.7 127 518.3 93 491 89C463.7 85 436.3 111 409 114C381.7 117 354.3 97 327 86C299.7 75 272.3 73 245.2 79C218 85 191 99 163.8 109C136.7 119 109.3 125 82 134C54.7 143 27.3 155 13.7 161L0 167Z" fill="#3c80ff"></path><path d="M0 301L13.7 293C27.3 285 54.7 269 82 270C109.3 271 136.7 289 163.8 282C191 275 218 243 245.2 231C272.3 219 299.7 227 327 246C354.3 265 381.7 295 409 298C436.3 301 463.7 277 491 275C518.3 273 545.7 293 573 288C600.3 283 627.7 253 654.8 236C682 219 709 215 736.2 233C763.3 251 790.7 291 818 292C845.3 293 872.7 255 886.3 236L900 217L900 155L886.3 167C872.7 179 845.3 203 818 202C790.7 201 763.3 175 736.2 165C709 155 682 161 654.8 170C627.7 179 600.3 191 573 189C545.7 187 518.3 171 491 170C463.7 169 436.3 183 409 185C381.7 187 354.3 177 327 169C299.7 161 272.3 155 245.2 161C218 167 191 185 163.8 188C136.7 191 109.3 179 82 180C54.7 181 27.3 195 13.7 202L0 209Z" fill="#0066ff"></path><path d="M0 469L13.7 466C27.3 463 54.7 457 82 461C109.3 465 136.7 479 163.8 477C191 475 218 457 245.2 451C272.3 445 299.7 451 327 459C354.3 467 381.7 477 409 457C436.3 437 463.7 387 491 392C518.3 397 545.7 457 573 478C600.3 499 627.7 481 654.8 457C682 433 709 403 736.2 395C763.3 387 790.7 401 818 399C845.3 397 872.7 379 886.3 370L900 361L900 215L886.3 234C872.7 253 845.3 291 818 290C790.7 289 763.3 249 736.2 231C709 213 682 217 654.8 234C627.7 251 600.3 281 573 286C545.7 291 518.3 271 491 273C463.7 275 436.3 299 409 296C381.7 293 354.3 263 327 244C299.7 225 272.3 217 245.2 229C218 241 191 273 163.8 280C136.7 287 109.3 269 82 268C54.7 267 27.3 283 13.7 291L0 299Z" fill="#0059dd"></path><path d="M0 601L13.7 601C27.3 601 54.7 601 82 601C109.3 601 136.7 601 163.8 601C191 601 218 601 245.2 601C272.3 601 299.7 601 327 601C354.3 601 381.7 601 409 601C436.3 601 463.7 601 491 601C518.3 601 545.7 601 573 601C600.3 601 627.7 601 654.8 601C682 601 709 601 736.2 601C763.3 601 790.7 601 818 601C845.3 601 872.7 601 886.3 601L900 601L900 359L886.3 368C872.7 377 845.3 395 818 397C790.7 399 763.3 385 736.2 393C709 401 682 431 654.8 455C627.7 479 600.3 497 573 476C545.7 455 518.3 395 491 390C463.7 385 436.3 435 409 455C381.7 475 354.3 465 327 457C299.7 449 272.3 443 245.2 449C218 455 191 473 163.8 475C136.7 477 109.3 463 82 459C54.7 455 27.3 461 13.7 464L0 467Z" fill="#004cbb"></path></svg>